# WaveFront *.obj file (generated by Autodesk ATF)

mtllib pressuresensoradapt.mtl

g Body1

v -3.460641 0.500000 0.000000
v -3.421988 0.500000 -0.515782
v -3.306894 0.500000 -1.020042
v -3.117930 0.500000 -1.501516
v -2.859316 0.500000 -1.949448
v -2.536829 0.500000 -2.353834
v -2.157674 0.500000 -2.705638
v -1.730320 0.500000 -2.997003
v -1.264314 0.500000 -3.221420
v -0.770065 0.500000 -3.373875
v -0.258614 0.500000 -3.450964
v 0.258614 0.500000 -3.450964
v 0.770065 0.500000 -3.373875
v 1.264314 0.500000 -3.221420
v 1.730320 0.500000 -2.997003
v 2.157674 0.500000 -2.705638
v 2.536829 0.500000 -2.353834
v 2.859316 0.500000 -1.949448
v 3.117930 0.500000 -1.501516
v 3.306894 0.500000 -1.020042
v 3.421988 0.500000 -0.515782
v 3.460641 0.500000 0.000000
v 3.421988 0.500000 0.515782
v 3.306894 0.500000 1.020042
v 3.117930 0.500000 1.501516
v 2.859316 0.500000 1.949448
v 2.536829 0.500000 2.353834
v 2.157674 0.500000 2.705638
v 1.730320 0.500000 2.997003
v 1.264314 0.500000 3.221420
v 0.770065 0.500000 3.373875
v 0.258614 0.500000 3.450964
v -0.258614 0.500000 3.450964
v -0.770065 0.500000 3.373875
v -1.264314 0.500000 3.221420
v -1.730320 0.500000 2.997003
v -2.157674 0.500000 2.705638
v -2.536829 0.500000 2.353834
v -2.859316 0.500000 1.949448
v -3.117930 0.500000 1.501516
v -3.306894 0.500000 1.020042
v -3.421988 0.500000 0.515782
v -0.625000 0.000000 0.000000
v -0.603704 0.000000 0.161762
v -0.541266 0.000000 0.312500
v -0.441942 0.000000 0.441942
v -0.312500 0.000000 0.541266
v -0.161762 0.000000 0.603704
v 0.000000 0.000000 0.625000
v 0.161762 0.000000 0.603704
v 0.312500 0.000000 0.541266
v 0.441942 0.000000 0.441942
v 0.541266 0.000000 0.312500
v 0.603704 0.000000 0.161762
v 0.625000 0.000000 0.000000
v 0.603704 0.000000 -0.161762
v 0.541266 0.000000 -0.312500
v 0.441942 0.000000 -0.441942
v 0.312500 0.000000 -0.541266
v 0.161762 0.000000 -0.603704
v 0.000000 0.000000 -0.625000
v -0.161762 0.000000 -0.603704
v -0.312500 0.000000 -0.541266
v -0.441942 0.000000 -0.441942
v -0.541266 0.000000 -0.312500
v -0.603704 0.000000 -0.161762
vt -2.879385 -6.112105 0.000000
vt -2.879385 -6.417710 0.000000
vt -0.000000 -6.417710 0.000000
vt -0.000000 6.417710 0.000000
vt -2.879385 6.417710 0.000000
vt -2.879385 6.112105 0.000000
vt -0.000000 5.882901 0.000000
vt -2.879385 5.806499 0.000000
vt -2.879385 5.500894 0.000000
vt -0.000000 5.348091 0.000000
vt -2.879385 5.195289 0.000000
vt -0.000000 4.813282 0.000000
vt -2.879385 4.889684 0.000000
vt -2.879385 4.584078 0.000000
vt -0.000000 4.278473 0.000000
vt -2.879385 4.278473 0.000000
vt -2.879385 3.972868 0.000000
vt -0.000000 3.743664 0.000000
vt -2.879385 3.667263 0.000000
vt -2.879385 3.361657 0.000000
vt -0.000000 3.208855 0.000000
vt -2.879385 3.056052 0.000000
vt -0.000000 2.674046 0.000000
vt -2.879385 2.750447 0.000000
vt -2.879385 2.444842 0.000000
vt -0.000000 2.139237 0.000000
vt -2.879385 2.139237 0.000000
vt -2.879385 1.833631 0.000000
vt -0.000000 1.604427 0.000000
vt -2.879385 1.528026 0.000000
vt -2.879385 1.222421 0.000000
vt -0.000000 1.069618 0.000000
vt -2.879385 0.916816 0.000000
vt -0.000000 0.534809 0.000000
vt -2.879385 0.611210 0.000000
vt -2.879385 0.305605 0.000000
vt -0.000000 0.000000 0.000000
vt -2.879385 0.000000 0.000000
vt -2.879385 -0.305605 0.000000
vt 0.000000 -0.534809 0.000000
vt -2.879385 -0.611210 0.000000
vt -2.879385 -0.916816 0.000000
vt -0.000000 -1.069618 0.000000
vt -2.879385 -1.222421 0.000000
vt -0.000000 -1.604427 0.000000
vt -2.879385 -1.528026 0.000000
vt -2.879385 -1.833631 0.000000
vt -0.000000 -2.139237 0.000000
vt -2.879385 -2.139237 0.000000
vt -2.879385 -2.444842 0.000000
vt -0.000000 -2.674046 0.000000
vt -2.879385 -2.750447 0.000000
vt -2.879385 -3.056052 0.000000
vt -0.000000 -3.208855 0.000000
vt -2.879385 -3.361657 0.000000
vt -0.000000 -3.743664 0.000000
vt -2.879385 -3.667263 0.000000
vt -2.879385 -3.972868 0.000000
vt -0.000000 -4.278473 0.000000
vt -2.879385 -4.278473 0.000000
vt -2.879385 -4.584078 0.000000
vt -0.000000 -4.813282 0.000000
vt -2.879385 -4.889684 0.000000
vt -2.879385 -5.195289 0.000000
vt -0.000000 -5.348091 0.000000
vt -2.879385 -5.500894 0.000000
vt 0.000000 -5.882901 0.000000
vt -2.879385 -5.806499 0.000000
vt -3.421988 -0.515782 0.000000
vt 3.421988 -0.515782 0.000000
vt -3.460641 -0.000000 0.000000
vt 3.460641 0.000000 0.000000
vt -3.421988 0.515782 0.000000
vt 3.421988 0.515782 0.000000
vt -3.306894 1.020042 0.000000
vt 3.306894 1.020042 0.000000
vt -3.117930 1.501516 0.000000
vt 3.117930 1.501516 0.000000
vt -2.859316 1.949448 0.000000
vt 2.859316 1.949448 0.000000
vt -2.536829 2.353834 0.000000
vt 2.536829 2.353834 0.000000
vt -2.157674 2.705638 0.000000
vt 2.157674 2.705638 0.000000
vt -1.730320 2.997003 0.000000
vt 1.730320 2.997003 0.000000
vt -1.264314 3.221420 0.000000
vt 1.264314 3.221420 0.000000
vt -0.770065 3.373875 0.000000
vt 0.770065 3.373875 0.000000
vt -0.258614 3.450964 0.000000
vt 0.258614 3.450964 0.000000
vt 3.306894 -1.020042 0.000000
vt -3.306894 -1.020042 0.000000
vt 3.117930 -1.501516 0.000000
vt -3.117930 -1.501516 0.000000
vt 2.859316 -1.949448 0.000000
vt -2.859316 -1.949448 0.000000
vt 2.536829 -2.353834 0.000000
vt -2.536829 -2.353834 0.000000
vt 2.157674 -2.705638 0.000000
vt -2.157674 -2.705638 0.000000
vt 1.730320 -2.997003 0.000000
vt -1.730320 -2.997003 0.000000
vt 1.264314 -3.221420 0.000000
vt -1.264314 -3.221420 0.000000
vt 0.770065 -3.373875 0.000000
vt -0.770065 -3.373875 0.000000
vt 0.258614 -3.450964 0.000000
vt -0.258614 -3.450964 0.000000
vt 0.603704 0.161762 0.000000
vt -0.603704 0.161762 0.000000
vt 0.625000 -0.000000 0.000000
vt -0.625000 0.000000 0.000000
vt 0.603704 -0.161762 0.000000
vt -0.603704 -0.161762 0.000000
vt 0.541266 -0.312500 0.000000
vt -0.541266 -0.312500 0.000000
vt 0.441942 -0.441942 0.000000
vt -0.441942 -0.441942 0.000000
vt 0.312500 -0.541266 0.000000
vt -0.312500 -0.541266 0.000000
vt 0.161762 -0.603704 0.000000
vt -0.161762 -0.603704 0.000000
vt -0.000000 -0.625000 0.000000
vt -0.541266 0.312500 0.000000
vt 0.541266 0.312500 0.000000
vt -0.441942 0.441942 0.000000
vt 0.441942 0.441942 0.000000
vt -0.312500 0.541266 0.000000
vt 0.312500 0.541266 0.000000
vt -0.161762 0.603704 0.000000
vt 0.161762 0.603704 0.000000
vt -0.000000 0.625000 0.000000
vn -0.171709 -0.984808 0.025881
vn -0.173648 -0.984808 0.000000
vn -0.173648 -0.984808 0.000000
vn -0.171709 -0.984808 -0.025881
vn -0.167731 -0.984808 -0.044943
vn -0.165933 -0.984808 -0.051184
vn -0.156452 -0.984808 -0.075343
vn -0.150384 -0.984808 -0.086824
vn -0.143475 -0.984808 -0.097820
vn -0.122788 -0.984808 -0.122788
vn -0.127293 -0.984808 -0.118111
vn -0.108268 -0.984808 -0.135764
vn -0.086824 -0.984808 -0.150384
vn -0.086824 -0.984808 -0.150384
vn -0.063441 -0.984808 -0.161645
vn -0.044943 -0.984808 -0.167731
vn -0.038640 -0.984808 -0.169294
vn -0.012977 -0.984808 -0.173163
vn 0.000000 -0.984808 -0.173648
vn 0.012977 -0.984808 -0.173163
vn 0.044943 -0.984808 -0.167731
vn 0.038640 -0.984808 -0.169294
vn 0.063441 -0.984808 -0.161645
vn 0.086824 -0.984808 -0.150384
vn 0.086824 -0.984808 -0.150384
vn 0.108268 -0.984808 -0.135764
vn 0.122788 -0.984808 -0.122788
vn 0.127293 -0.984808 -0.118111
vn 0.143475 -0.984808 -0.097820
vn 0.150384 -0.984808 -0.086824
vn 0.156452 -0.984808 -0.075343
vn 0.167731 -0.984808 -0.044943
vn 0.165933 -0.984808 -0.051184
vn 0.171709 -0.984808 -0.025881
vn 0.173648 -0.984808 -0.000000
vn 0.173648 -0.984808 -0.000000
vn 0.171709 -0.984808 0.025881
vn 0.167731 -0.984808 0.044943
vn 0.165933 -0.984808 0.051184
vn 0.156452 -0.984808 0.075343
vn 0.150384 -0.984808 0.086824
vn 0.143475 -0.984808 0.097820
vn 0.122788 -0.984808 0.122788
vn 0.127293 -0.984808 0.118111
vn 0.108268 -0.984808 0.135764
vn 0.086824 -0.984808 0.150384
vn 0.086824 -0.984808 0.150384
vn 0.063441 -0.984808 0.161645
vn 0.044943 -0.984808 0.167731
vn 0.038640 -0.984808 0.169294
vn 0.012977 -0.984808 0.173163
vn 0.000000 -0.984808 0.173648
vn -0.012977 -0.984808 0.173163
vn -0.044943 -0.984808 0.167731
vn -0.038640 -0.984808 0.169294
vn -0.063441 -0.984808 0.161645
vn -0.086824 -0.984808 0.150384
vn -0.086824 -0.984808 0.150384
vn -0.108268 -0.984808 0.135764
vn -0.122788 -0.984808 0.122788
vn -0.127293 -0.984808 0.118111
vn -0.143475 -0.984808 0.097820
vn -0.150384 -0.984808 0.086824
vn -0.156452 -0.984808 0.075343
vn -0.167731 -0.984808 0.044943
vn -0.165933 -0.984808 0.051184
vn 0.000000 1.000000 0.000000
vn 0.000000 1.000000 0.000000
vn 0.000000 1.000000 0.000000
vn 0.000000 1.000000 0.000000
vn 0.000000 1.000000 0.000000
vn 0.000000 1.000000 0.000000
vn 0.000000 1.000000 0.000000
vn 0.000000 1.000000 0.000000
vn 0.000000 1.000000 0.000000
vn 0.000000 1.000000 0.000000
vn 0.000000 1.000000 0.000000
vn 0.000000 1.000000 0.000000
vn 0.000000 1.000000 0.000000
vn 0.000000 1.000000 0.000000
vn 0.000000 1.000000 0.000000
vn 0.000000 1.000000 0.000000
vn 0.000000 1.000000 0.000000
vn 0.000000 1.000000 0.000000
vn 0.000000 1.000000 0.000000
vn 0.000000 1.000000 0.000000
vn 0.000000 1.000000 0.000000
vn 0.000000 1.000000 0.000000
vn 0.000000 1.000000 0.000000
vn 0.000000 1.000000 0.000000
vn 0.000000 1.000000 0.000000
vn 0.000000 1.000000 0.000000
vn 0.000000 1.000000 0.000000
vn 0.000000 1.000000 0.000000
vn 0.000000 1.000000 0.000000
vn 0.000000 1.000000 0.000000
vn 0.000000 1.000000 0.000000
vn 0.000000 1.000000 0.000000
vn 0.000000 1.000000 0.000000
vn 0.000000 1.000000 0.000000
vn 0.000000 1.000000 0.000000
vn 0.000000 1.000000 0.000000
vn 0.000000 1.000000 0.000000
vn 0.000000 1.000000 0.000000
vn 0.000000 1.000000 0.000000
vn 0.000000 1.000000 0.000000
vn 0.000000 1.000000 0.000000
vn 0.000000 1.000000 0.000000
vn -0.000000 -1.000000 -0.000000
vn -0.000000 -1.000000 -0.000000
vn -0.000000 -1.000000 -0.000000
vn -0.000000 -1.000000 -0.000000
vn -0.000000 -1.000000 -0.000000
vn -0.000000 -1.000000 -0.000000
vn -0.000000 -1.000000 -0.000000
vn -0.000000 -1.000000 -0.000000
vn -0.000000 -1.000000 -0.000000
vn -0.000000 -1.000000 -0.000000
vn -0.000000 -1.000000 -0.000000
vn -0.000000 -1.000000 -0.000000
vn -0.000000 -1.000000 -0.000000
vn -0.000000 -1.000000 -0.000000
vn -0.000000 -1.000000 -0.000000
vn -0.000000 -1.000000 -0.000000
vn -0.000000 -1.000000 -0.000000
vn -0.000000 -1.000000 -0.000000
vn -0.000000 -1.000000 -0.000000
vn -0.000000 -1.000000 -0.000000
vn -0.000000 -1.000000 -0.000000
vn -0.000000 -1.000000 -0.000000
vn -0.000000 -1.000000 -0.000000
vn -0.000000 -1.000000 -0.000000
usemtl Steel_-_Satin
f 42/1/1 1/2/2 43/3/3
f 43/4/3 1/5/2 2/6/4
f 43/4/3 2/6/4 66/7/5
f 66/7/5 2/6/4 3/8/6
f 66/7/5 3/8/6 4/9/7
f 66/7/5 4/9/7 65/10/8
f 65/10/8 4/9/7 5/11/9
f 65/10/8 5/11/9 64/12/10
f 64/12/10 5/11/9 6/13/11
f 64/12/10 6/13/11 7/14/12
f 64/12/10 7/14/12 63/15/13
f 63/15/13 7/14/12 8/16/14
f 63/15/13 8/16/14 9/17/15
f 63/15/13 9/17/15 62/18/16
f 62/18/16 9/17/15 10/19/17
f 62/18/16 10/19/17 11/20/18
f 62/18/16 11/20/18 61/21/19
f 61/21/19 11/20/18 12/22/20
f 61/21/19 12/22/20 60/23/21
f 60/23/21 12/22/20 13/24/22
f 60/23/21 13/24/22 14/25/23
f 60/23/21 14/25/23 59/26/24
f 59/26/24 14/25/23 15/27/25
f 59/26/24 15/27/25 16/28/26
f 59/26/24 16/28/26 58/29/27
f 58/29/27 16/28/26 17/30/28
f 58/29/27 17/30/28 18/31/29
f 58/29/27 18/31/29 57/32/30
f 57/32/30 18/31/29 19/33/31
f 57/32/30 19/33/31 56/34/32
f 56/34/32 19/33/31 20/35/33
f 56/34/32 20/35/33 21/36/34
f 56/34/32 21/36/34 55/37/35
f 55/37/35 21/36/34 22/38/36
f 55/37/35 22/38/36 23/39/37
f 55/37/35 23/39/37 54/40/38
f 54/40/38 23/39/37 24/41/39
f 54/40/38 24/41/39 25/42/40
f 54/40/38 25/42/40 53/43/41
f 53/43/41 25/42/40 26/44/42
f 53/43/41 26/44/42 52/45/43
f 52/45/43 26/44/42 27/46/44
f 52/45/43 27/46/44 28/47/45
f 52/45/43 28/47/45 51/48/46
f 51/48/46 28/47/45 29/49/47
f 51/48/46 29/49/47 30/50/48
f 51/48/46 30/50/48 50/51/49
f 50/51/49 30/50/48 31/52/50
f 50/51/49 31/52/50 32/53/51
f 50/51/49 32/53/51 49/54/52
f 49/54/52 32/53/51 33/55/53
f 49/54/52 33/55/53 48/56/54
f 48/56/54 33/55/53 34/57/55
f 48/56/54 34/57/55 35/58/56
f 48/56/54 35/58/56 47/59/57
f 47/59/57 35/58/56 36/60/58
f 47/59/57 36/60/58 37/61/59
f 47/59/57 37/61/59 46/62/60
f 46/62/60 37/61/59 38/63/61
f 46/62/60 38/63/61 39/64/62
f 46/62/60 39/64/62 45/65/63
f 45/65/63 39/64/62 40/66/64
f 45/65/63 40/66/64 44/67/65
f 44/67/65 40/66/64 41/68/66
f 44/67/65 41/68/66 42/1/1
f 44/67/65 42/1/1 43/3/3
f 42/69/67 23/70/68 1/71/69
f 1/71/69 23/70/68 22/72/70
f 1/71/69 22/72/70 2/73/71
f 2/73/71 22/72/70 21/74/72
f 2/73/71 21/74/72 3/75/73
f 3/75/73 21/74/72 20/76/74
f 3/75/73 20/76/74 4/77/75
f 4/77/75 20/76/74 19/78/76
f 4/77/75 19/78/76 5/79/77
f 5/79/77 19/78/76 18/80/78
f 5/79/77 18/80/78 6/81/79
f 6/81/79 18/80/78 17/82/80
f 6/81/79 17/82/80 7/83/81
f 7/83/81 17/82/80 16/84/82
f 7/83/81 16/84/82 8/85/83
f 8/85/83 16/84/82 15/86/84
f 8/85/83 15/86/84 9/87/85
f 9/87/85 15/86/84 14/88/86
f 9/87/85 14/88/86 10/89/87
f 10/89/87 14/88/86 13/90/88
f 10/89/87 13/90/88 11/91/89
f 11/91/89 13/90/88 12/92/90
f 23/70/68 42/69/67 24/93/91
f 24/93/91 42/69/67 41/94/92
f 24/93/91 41/94/92 25/95/93
f 25/95/93 41/94/92 40/96/94
f 25/95/93 40/96/94 26/97/95
f 26/97/95 40/96/94 39/98/96
f 26/97/95 39/98/96 27/99/97
f 27/99/97 39/98/96 38/100/98
f 27/99/97 38/100/98 28/101/99
f 28/101/99 38/100/98 37/102/100
f 28/101/99 37/102/100 29/103/101
f 29/103/101 37/102/100 36/104/102
f 29/103/101 36/104/102 30/105/103
f 30/105/103 36/104/102 35/106/104
f 30/105/103 35/106/104 31/107/105
f 31/107/105 35/106/104 34/108/106
f 31/107/105 34/108/106 32/109/107
f 32/109/107 34/108/106 33/110/108
f 66/111/109 56/112/110 43/113/111
f 43/113/111 56/112/110 55/114/112
f 43/113/111 55/114/112 44/115/113
f 44/115/113 55/114/112 54/116/114
f 44/115/113 54/116/114 45/117/115
f 45/117/115 54/116/114 53/118/116
f 45/117/115 53/118/116 46/119/117
f 46/119/117 53/118/116 52/120/118
f 46/119/117 52/120/118 47/121/119
f 47/121/119 52/120/118 51/122/120
f 47/121/119 51/122/120 48/123/121
f 48/123/121 51/122/120 50/124/122
f 48/123/121 50/124/122 49/125/123
f 56/112/110 66/111/109 57/126/124
f 57/126/124 66/111/109 65/127/125
f 57/126/124 65/127/125 58/128/126
f 58/128/126 65/127/125 64/129/127
f 58/128/126 64/129/127 59/130/128
f 59/130/128 64/129/127 63/131/129
f 59/130/128 63/131/129 60/132/130
f 60/132/130 63/131/129 62/133/131
f 60/132/130 62/133/131 61/134/132
# 66 vertices
# 134 texture params
# 132 normals
# 128 facets

# 1 groups
