0
SECTION
2
HEADER
9
$INSUNITS
70
4
9
$ACADVER
1
AC1014
9
$HANDSEED
5
FFFF
0
ENDSEC
0
SECTION
2
TABLES
0
TABLE
2
VPORT
5
8
100
AcDbSymbolTable
0
ENDTAB
0
TABLE
2
LTYPE
5
5
100
AcDbSymbolTable
0
LTYPE
5
14
100
AcDbSymbolTableRecord
100
AcDbLinetypeTableRecord
2
BYBLOCK
70
0
0
LTYPE
5
15
100
AcDbSymbolTableRecord
100
AcDbLinetypeTableRecord
2
BYLAYER
70
0
0
ENDTAB
0
TABLE
2
LAYER
5
2
100
AcDbSymbolTable
70
2
0
LAYER
5
50
100
AcDbSymbolTableRecord
100
AcDbLayerTableRecord
2
0
70
0
6
CONTINUOUS
0
ENDTAB
0
TABLE
2
STYLE
5
3
100
AcDbSymbolTable
70
1
0
STYLE
5
11
100
AcDbSymbolTableRecord
100
AcDbTextStyleTableRecord
2
STANDARD
70
0
0
ENDTAB
0
TABLE
2
VIEW
5
6
100
AcDbSymbolTable
70
0
0
ENDTAB
0
TABLE
2
UCS
5
7
100
AcDbSymbolTable
70
0
0
ENDTAB
0
TABLE
2
APPID
5
9
100
AcDbSymbolTable
70
2
0
APPID
5
12
100
AcDbSymbolTableRecord
100
AcDbRegAppTableRecord
2
ACAD
70
0
0
ENDTAB
0
TABLE
2
DIMSTYLE
5
A
100
AcDbSymbolTable
70
1
0
ENDTAB
0
TABLE
2
BLOCK_RECORD
5
1
100
AcDbSymbolTable
70
1
0
BLOCK_RECORD
5
1F
100
AcDbSymbolTableRecord
100
AcDbBlockTableRecord
2
*MODEL_SPACE
0
BLOCK_RECORD
5
1B
100
AcDbSymbolTableRecord
100
AcDbBlockTableRecord
2
*PAPER_SPACE
0
ENDTAB
0
ENDSEC
0
SECTION
2
BLOCKS
0
BLOCK
5
20
100
AcDbEntity
100
AcDbBlockBegin
2
*MODEL_SPACE
0
ENDBLK
5
21
100
AcDbEntity
100
AcDbBlockEnd
0
BLOCK
5
1C
100
AcDbEntity
100
AcDbBlockBegin
2
*PAPER_SPACE
0
ENDBLK
5
1D
100
AcDbEntity
100
AcDbBlockEnd
0
ENDSEC
0
SECTION
2
ENTITIES
0
LWPOLYLINE
5
100
100
AcDbEntity
8
0
100
AcDbPolyline
90
220
70
1
43
0.0
10
10.436274209907122
20
-0.24415482216488416
10
10.328217144753321
20
-0.51783674556253911
10
10.268411542775219
20
-0.22973708486100719
10
10.17615488302612
20
-0.50914151083925507
10
10.099999550730022
20
-0.22492594144310718
10
10.023844218434022
20
-0.50914151083925818
10
9.9315875586848605
20
-0.22973708486100719
10
9.8717819567067622
20
-0.51783674556253612
10
9.7637248915529309
20
-0.24415482216488416
10
9.7204640933357105
20
-0.53519885296075709
10
9.5969590824637905
20
-0.26813212569241218
10
9.5703841957393809
20
-0.5611712014483351
10
9.431834086824022
20
-0.30159078646322318
10
9.4220317933492606
20
-0.59566907462291407
10
9.2688885080478105
20
-0.34442166928034013
10
9.2758907808665914
20
-0.63857994759266523
10
9.1086538407445108
20
-0.39648506870650913
10
9.1324378398983317
20
-0.68976385400907825
10
8.9516527370937204
20
-0.45761116475429914
10
8.9921408841209018
20
-0.74905384260811514
10
8.7983973020625221
20
-0.52760057680359917
10
8.8554575330430207
20
-0.8162565217705342
10
8.649387423025491
20
-0.60622501393976413
10
8.7228336193459413
20
-0.89115269032511923
10
8.5051091392360121
20
-0.69322801959112224
10
8.5947017346699717
20
-0.97349805253739929
10
8.3660330564672307
20
-0.78832580803701235
10
8.4714798185904208
20
-1.0630240149514993
10
8.232612811993862
20
-0.89120819005781327
10
8.3535697953855816
20
-1.1594385624862094
10
8.1052835949216711
20
-1.0015395847077093
10
8.2413562630432917
20
-1.2624272109274393
10
7.9844607266910819
20
-1.1189601139099894
10
8.1352052387821914
20
-1.3716540327104094
10
7.8705383063849617
20
-1.2430867763045192
10
8.0354629651797218
20
-1.4867627526454994
10
7.7638879252593114
20
-1.3735146965185694
10
7.9424547808006913
20
-1.6073779100138994
10
7.6648574546898409
20
-1.5098184457861394
10
7.8564840590105911
20
-1.7331060832424094
10
7.5737699114878412
20
-1.6515534296081693
10
7.7778312184346809
20
-1.8635371731628194
10
7.4909224042864722
20
-1.7982573379273694
10
7.706752808290771
20
-1.9982457406702394
10
7.4165851644342009
20
-1.9494516530875394
10
7.6434806715789119
20
-2.1367923944169189
10
7.3510006645562411
20
-2.1046432106587192
10
7.5882211888578226
20
-2.2787252240155893
10
7.2943828276593212
20
-2.2633258080370093
10
7.5411546050743219
20
-2.4235812740771592
10
7.2469163293592516
20
-2.4249818555723195
10
7.5024344416418112
20
-2.570888054274969
10
7.2087559955074623
20
-2.589084064838159
10
7.4721869956853411
20
-2.7201650805100792
10
7.1800262971812714
20
-2.7550971685369192
10
7.4505109280866213
20
-2.8709254421504786
10
7.1608209446850912
20
-2.922479666430529
10
7.4374769416727418
20
-3.0226773902323689
10
7.1512025818868716
20
-3.0906855916016998
10
7.4331275505982122
20
-3.1749259414431092
10
7.1512025818868716
20
-3.259166291284509
10
7.4374769416727311
20
-3.3271744926538389
10
7.1608209446850912
20
-3.4273722164556792
10
7.4505109280866311
20
-3.478926440735739
10
7.1800262971812714
20
-3.5947547143492993
10
7.4721869956853411
20
-3.6296868023761291
10
7.2087559955074623
20
-3.760767818048059
10
7.5024344416418112
20
-3.7789638286112393
10
7.2469163293592516
20
-3.9248700273138892
10
7.5411546050743219
20
-3.9262706088090593
10
7.2943828276593212
20
-4.0865260748491998
10
7.5882211888578226
20
-4.0711266588706199
10
7.3510006645562411
20
-4.2452086722274993
10
7.6434806715789119
20
-4.2130594884692893
10
7.4165851644342009
20
-4.4004002297986684
10
7.7067528082907613
20
-4.35160614221597
10
7.4909224042864722
20
-4.5515945449588386
10
7.7778312184346809
20
-4.4863147097233895
10
7.5737699114878412
20
-4.6982984532780483
10
7.8564840590105911
20
-4.6167457996438097
10
7.6648574546898409
20
-4.8400334371000699
10
7.9424547808006816
20
-4.7424739728723084
10
7.7638879252593114
20
-4.9763371863676484
10
8.0354629651797218
20
-4.8630891302407084
10
7.8705383063849617
20
-5.1067651065816992
10
8.135205238782202
20
-4.9781978501758086
10
7.9844607266910819
20
-5.2308917689762193
10
8.2413562630432917
20
-5.087424671958769
10
8.1052835949216711
20
-5.3483122981784987
10
8.3535697953855816
20
-5.1904133204000091
10
8.232612811993862
20
-5.4586436928283986
10
8.4714798185904208
20
-5.2868278679347096
10
8.3660330564672307
20
-5.5615260748491995
10
8.5947017346699717
20
-5.3763538303488092
10
8.5051091392360121
20
-5.6566238632950894
10
8.7228336193459413
20
-5.4586991925610899
10
8.649387423025491
20
-5.7436268689464498
10
8.8554575330430207
20
-5.5335953611156796
10
8.7983973020625221
20
-5.8222513060826087
10
8.9921408841209018
20
-5.6007980402780886
10
8.9516527370937204
20
-5.8922407181319194
10
9.1324378398983317
20
-5.6600880288771283
10
9.1086538407445108
20
-5.9533668141796987
10
9.2758907808665914
20
-5.7112719352935493
10
9.2688885080478105
20
-6.0054302136058695
10
9.4220317933492606
20
-5.7541828082633
10
9.431834086824022
20
-6.0482610964229897
10
9.5703841957393809
20
-5.7886806814378788
10
9.5969590824637905
20
-6.0817197571937998
10
9.7204640933357105
20
-5.8146530299254584
10
9.7637248915529309
20
-6.1056970607213294
10
9.8717819567067711
20
-5.8320151373236797
10
9.9315875586848605
20
-6.1201147980252095
10
10.023844218434022
20
-5.84071037204696
10
10.099999550730022
20
-6.1249259414431094
10
10.17615488302612
20
-5.84071037204696
10
10.268411542775219
20
-6.1201147980252095
10
10.328217144753321
20
-5.8320151373236797
10
10.436274209907122
20
-6.1056970607213294
10
10.479535008124321
20
-5.8146530299254584
10
10.603040018996222
20
-6.0817197571937998
10
10.629614905720722
20
-5.7886806814378788
10
10.768165014636022
20
-6.0482610964229897
10
10.777967308110821
20
-5.7541828082633
10
10.931110593412221
20
-6.0054302136058793
10
10.924108320593419
20
-5.711271935293559
10
11.091345260715519
20
-5.9533668141797094
10
11.067561261561721
20
-5.6600880288771283
10
11.248346364366322
20
-5.8922407181319194
10
11.207858217339119
20
-5.6007980402780984
10
11.40160179939752
20
-5.8222513060826184
10
11.344541568417021
20
-5.5335953611156796
10
11.550611678434519
20
-5.7436268689464498
10
11.47716548211412
20
-5.4586991925610997
10
11.694889962224019
20
-5.6566238632950894
10
11.605297366790122
20
-5.3763538303488092
10
11.83396604499282
20
-5.5615260748491995
10
11.72851928286962
20
-5.2868278679347096
10
11.967386289466219
20
-5.4586436928283986
10
11.84642930607442
20
-5.1904133204000091
10
12.094715506538421
20
-5.3483122981784987
10
11.958642838416722
20
-5.0874246719587788
10
12.215538374768922
20
-5.2308917689762193
10
12.064793862677821
20
-4.9781978501757997
10
12.32946079507512
20
-5.1067651065816992
10
12.164536136280322
20
-4.8630891302407084
10
12.436111176200722
20
-4.9763371863676484
10
12.257544320659319
20
-4.7424739728723084
10
12.535141646770221
20
-4.8400334371000788
10
12.343515042449422
20
-4.6167457996438097
10
12.62622918997222
20
-4.6982984532780483
10
12.42216788302532
20
-4.4863147097233895
10
12.70907669717362
20
-4.5515945449588386
10
12.493246293169321
20
-4.3516061422159789
10
12.78341393702582
20
-4.4004002297986684
10
12.55651842988112
20
-4.2130594884692893
10
12.84899843690382
20
-4.2452086722274993
10
12.61177791260222
20
-4.0711266588706199
10
12.905616273800719
20
-4.0865260748491998
10
12.658844496385722
20
-3.9262706088090593
10
12.953082772100821
20
-3.924870027313899
10
12.697564659818221
20
-3.778963828611249
10
12.991243105952622
20
-3.760767818048059
10
12.727812105774721
20
-3.6296868023761291
10
13.019972804278821
20
-3.5947547143492993
10
12.749488173373422
20
-3.478926440735739
10
13.039178156774922
20
-3.427372216455689
10
12.762522159787322
20
-3.3271744926538389
10
13.048796519573219
20
-3.259166291284509
10
12.766871550861822
20
-3.1749259414431092
10
13.048796519573219
20
-3.0906855916016998
10
12.762522159787322
20
-3.0226773902323689
10
13.039178156774922
20
-2.922479666430529
10
12.749488173373422
20
-2.8709254421504786
10
13.019972804278821
20
-2.7550971685369192
10
12.727812105774721
20
-2.7201650805100792
10
12.991243105952622
20
-2.589084064838159
10
12.697564659818221
20
-2.570888054274969
10
12.953082772100821
20
-2.4249818555723195
10
12.658844496385722
20
-2.4235812740771592
10
12.905616273800719
20
-2.2633258080370093
10
12.61177791260222
20
-2.2787252240155991
10
12.84899843690382
20
-2.1046432106587192
10
12.55651842988112
20
-2.1367923944169291
10
12.78341393702582
20
-1.9494516530875394
10
12.493246293169321
20
-1.9982457406702394
10
12.70907669717362
20
-1.7982573379273694
10
12.42216788302532
20
-1.8635371731628194
10
12.62622918997222
20
-1.6515534296081693
10
12.343515042449422
20
-1.7331060832424094
10
12.535141646770221
20
-1.5098184457861394
10
12.257544320659319
20
-1.6073779100138994
10
12.436111176200722
20
-1.3735146965185694
10
12.164536136280322
20
-1.4867627526455094
10
12.32946079507512
20
-1.2430867763045192
10
12.064793862677821
20
-1.3716540327104094
10
12.215538374768922
20
-1.1189601139099894
10
11.958642838416722
20
-1.2624272109274393
10
12.094715506538421
20
-1.0015395847077093
10
11.84642930607442
20
-1.1594385624862094
10
11.967386289466219
20
-0.89120819005781415
10
11.72851928286962
20
-1.0630240149514993
10
11.83396604499282
20
-0.78832580803701235
10
11.605297366790122
20
-0.9734980525374024
10
11.694889962224019
20
-0.69322801959112423
10
11.47716548211412
20
-0.89115269032512223
10
11.550611678434519
20
-0.60622501393976513
10
11.344541568417021
20
-0.81625652177053221
10
11.40160179939752
20
-0.52760057680360017
10
11.207858217339119
20
-0.74905384260811625
10
11.248346364366322
20
-0.45761116475430014
10
11.067561261561721
20
-0.68976385400907725
10
11.091345260715519
20
-0.39648506870651018
10
10.924108320593419
20
-0.63857994759266623
10
10.931110593412221
20
-0.34442166928034113
10
10.777967308110821
20
-0.59566907462291507
10
10.768165014636022
20
-0.30159078646322413
10
10.629614905720722
20
-0.5611712014483381
10
10.603040018996222
20
-0.26813212569241318
10
10.479535008124321
20
-0.53519885296075009
0
SPLINE
5
101
100
AcDbEntity
8
0
100
AcDbSpline
70
0
71
3
72
74
73
70
74
0
42
0.000000001
43
0.0000000001
44
0.0000000001
40
0
40
0
40
0
40
0
40
0.011016417334182699
40
0.011016417334182699
40
0.011016417334182699
40
0.022340589017541799
40
0.022340589017541799
40
0.022340589017541799
40
0.030612334996178901
40
0.030612334996178901
40
0.030612334996178901
40
0.0338513191846153
40
0.0338513191846153
40
0.0338513191846153
40
0.045568640185353497
40
0.045568640185353497
40
0.045568640185353497
40
0.055890521208461601
40
0.055890521208461601
40
0.055890521208461601
40
0.063631931975792699
40
0.063631931975792699
40
0.063631931975792699
40
0.066059205747270797
40
0.066059205747270797
40
0.066059205747270797
40
0.078455632825126395
40
0.078455632825126395
40
0.078455632825126395
40
0.086856164277786002
40
0.086856164277786002
40
0.086856164277786002
40
0.099024180669178202
40
0.099024180669178202
40
0.099024180669178202
40
0.101404930661814
40
0.101404930661814
40
0.101404930661814
40
0.10394557167237101
40
0.10394557167237101
40
0.10394557167237101
40
0.116371071293912
40
0.116371071293912
40
0.116371071293912
40
0.12911413098454499
40
0.12911413098454499
40
0.12911413098454499
40
0.13644910473218899
40
0.13644910473218899
40
0.13644910473218899
40
0.140524732603833
40
0.140524732603833
40
0.140524732603833
40
0.153734688888786
40
0.153734688888786
40
0.153734688888786
40
0.162174773976834
40
0.162174773976834
40
0.162174773976834
40
0.16630378025848999
40
0.16630378025848999
40
0.16630378025848999
40
0.17975800324845501
40
0.17975800324845501
40
0.17975800324845501
40
0.18420029540892299
40
0.18420029540892299
40
0.18420029540892299
40
0.190345339459179
40
0.190345339459179
40
0.190345339459179
40
0.190345339459179
10
10.702218954906622
20
-2.6309920858749991
30
0
10
10.730277664748014
20
-2.6546810995180579
30
8.8817841970012523e-15
10
10.756463559986923
20
-2.6803153491626057
30
0
10
10.780762858190158
20
-2.7075948264959409
30
-8.8817841970012523e-15
10
10.805740980958326
20
-2.7356363826011609
30
-1.7763568394002505e-14
10
10.828726312406424
20
-2.7654169836023779
30
8.8817841970012523e-15
10
10.849680436040147
20
-2.7966629941555277
30
-8.8817841970012523e-15
10
10.864986384479433
20
-2.8194866557325819
30
-1.7763568394002505e-14
10
10.879208112860821
20
-2.8430933616663188
30
0
10
10.892319836254025
20
-2.8673901378652693
30
0
10
10.89745402012082
20
-2.8769040753267934
30
0
10
10.902419929962033
20
-2.8865284851565094
30
-2.6645352591003757e-14
10
10.907202508880829
20
-2.8962303677825583
30
-1.7763568394002505e-14
10
10.92450392473922
20
-2.9313278139036942
30
0
10
10.939442331153931
20
-2.9674936651248456
30
-1.7763568394002505e-14
10
10.951984357946179
20
-3.0044337612742744
30
-8.8817841970012523e-15
10
10.963032728843427
20
-3.0369745850182692
30
0
10
10.972221388693519
20
-3.0701173974751494
30
0
10
10.979505322391754
20
-3.1036841409997287
30
-8.8817841970012523e-15
10
10.984968272665427
20
-3.1288591986431431
30
-1.7763568394002505e-14
10
10.989359414739209
20
-3.1542732081536728
30
1.7763568394002505e-14
10
10.992650406549863
20
-3.1798560733557544
30
-8.8817841970012523e-15
10
10.99368227765763
20
-3.1878774301304516
30
-1.7763568394002505e-14
10
10.994605944555731
20
-3.1959155684989731
30
-1.7763568394002505e-14
10
10.995420302157271
20
-3.2039678988826612
30
-1.7763568394002505e-14
10
10.999579340474829
20
-3.245092277838693
30
-1.7763568394002505e-14
10
11.000863120815211
20
-3.2863116208490584
30
1.7763568394002505e-14
10
10.99921853685159
20
-3.3273223892492614
30
1.7763568394002505e-14
10
10.998104072238018
20
-3.3551136429452013
30
1.7763568394002505e-14
10
10.995644051783025
20
-3.3828099354820211
30
-8.8817841970012523e-15
10
10.991809775537165
20
-3.4103228837945148
30
0
10
10.98625589641992
20
-3.4501748869598337
30
8.8817841970012523e-15
10
10.977821357186823
20
-3.4896426698258058
30
-8.8817841970012523e-15
10
10.966703458071954
20
-3.5285370701318697
30
-8.8817841970012523e-15
10
10.964528170220223
20
-3.5361470075500816
30
-8.8817841970012523e-15
10
10.962249995273918
20
-3.5437349890557583
30
-1.7763568394002505e-14
10
10.959870176607424
20
-3.5512995773837837
30
-2.6645352591003757e-14
10
10.957330529470823
20
-3.5593722029822565
30
-2.6645352591003757e-14
10
10.954678004558412
20
-3.5674089673758544
30
1.7763568394002505e-14
10
10.951915741590453
20
-3.5754058082152298
30
1.7763568394002505e-14
10
10.938406356628022
20
-3.6145159156291715
30
8.8817841970012523e-15
10
10.922270770282324
20
-3.6526890231111748
30
0
10
10.903755948184081
20
-3.6897302535562568
30
-8.8817841970012523e-15
10
10.884767940430226
20
-3.7277181514237858
30
-8.8817841970012523e-15
10
10.863277222229332
20
-3.7645166077978969
30
-2.6645352591003757e-14
10
10.839494847894146
20
-3.7999128991115123
30
-1.7763568394002505e-14
10
10.825805585217825
20
-3.8202871949127042
30
-1.7763568394002505e-14
10
10.81135605523102
20
-3.8401967959874046
30
0
10
10.796179197446158
20
-3.859598655273059
30
-8.8817841970012523e-15
10
10.787746280476025
20
-3.8703791653589681
30
-8.8817841970012523e-15
10
10.779084236548627
20
-3.8810078162895301
30
-8.8817841970012523e-15
10
10.770222189089775
20
-3.891449443944774
30
-8.8817841970012523e-15
10
10.741498452965319
20
-3.9252929275044912
30
0
10
10.710645250353227
20
-3.9572185052792652
30
-8.8817841970012523e-15
10
10.677891419886134
20
-3.9869954904384852
30
0
10
10.656964392563822
20
-4.0060205563045725
30
8.8817841970012523e-15
10
10.635260415769729
20
-4.02416830884723
30
-8.8817841970012523e-15
10
10.612829311233604
20
-4.0413734338550853
30
-8.8817841970012523e-15
10
10.601855704857833
20
-4.0497904188135401
30
-8.8817841970012523e-15
10
10.590704536274224
20
-4.0579838746894739
30
-1.7763568394002505e-14
10
10.579404145981135
20
-4.0659302028848465
30
-8.8817841970012523e-15
10
10.542582218256719
20
-4.0918230362202976
30
8.8817841970012523e-15
10
10.504137560372319
20
-4.1151282983768596
30
0
10
10.464282852123681
20
-4.1356011837307367
30
0
10
10.451123693237829
20
-4.1423608857348961
30
0
10
10.437810477599021
20
-4.1488115580626213
30
1.7763568394002505e-14
10
10.424349934927049
20
-4.154943535340454
30
8.8817841970012523e-15
10
10.40572990169383
20
-4.1634259289170759
30
0
10
10.386828001919808
20
-4.171298589714648
30
8.8817841970012523e-15
10
10.367672094688114
20
-4.178568823864051
30
0
0
ARC
5
102
100
AcDbEntity
8
0
100
AcDbCircle
10
10.099999550730022
20
-3.1749259414431092
30
0
40
1.0370000000000001
210
0
220
0
230
1
100
AcDbArc
50
255.08440250812941
51
284.92446587469311
0
SPLINE
5
103
100
AcDbEntity
8
0
100
AcDbSpline
70
0
71
3
72
56
73
52
74
0
42
0.000000001
43
0.0000000001
44
0.0000000001
40
0
40
0
40
0
40
0
40
0.035761166623047902
40
0.035761166623047902
40
0.035761166623047902
40
0.038838142381526199
40
0.038838142381526199
40
0.038838142381526199
40
0.041329412749771803
40
0.041329412749771803
40
0.041329412749771803
40
0.075080704383601704
40
0.075080704383601704
40
0.075080704383601704
40
0.077669002788530603
40
0.077669002788530603
40
0.077669002788530603
40
0.089955359187632505
40
0.089955359187632505
40
0.089955359187632505
40
0.098572087677103196
40
0.098572087677103196
40
0.098572087677103196
40
0.11350969537274699
40
0.11350969537274699
40
0.11350969537274699
40
0.115970652626483
40
0.115970652626483
40
0.115970652626483
40
0.146982340395342
40
0.146982340395342
40
0.146982340395342
40
0.15008077006641199
40
0.15008077006641199
40
0.15008077006641199
40
0.161645782433948
40
0.161645782433948
40
0.161645782433948
40
0.16899611291351299
40
0.16899611291351299
40
0.16899611291351299
40
0.172017929858955
40
0.172017929858955
40
0.172017929858955
40
0.18307823838210899
40
0.18307823838210899
40
0.18307823838210899
40
0.18643698319385099
40
0.18643698319385099
40
0.18643698319385099
40
0.19134111205818599
40
0.19134111205818599
40
0.19134111205818599
40
0.19134111205818599
10
9.8330800461364714
20
-4.1769853099774892
30
0
10
9.7217825517969167
20
-4.1342953246729435
30
-8.8817841970012523e-15
10
9.6195180990046936
20
-4.0714220684377516
30
-1.7763568394002505e-14
10
9.5301303172205856
20
-3.992621470473618
30
-1.7763568394002505e-14
10
9.5224391800562671
20
-3.9858412797643745
30
-1.7763568394002505e-14
10
9.5148446586439661
20
-3.9789422391522193
30
-2.6645352591003757e-14
10
9.5073499933690861
20
-3.9719266273457281
30
-2.6645352591003757e-14
10
9.5012819450694561
20
-3.9662464442112104
30
-2.6645352591003757e-14
10
9.4952806206751905
20
-3.9604908958579106
30
-2.6645352591003757e-14
10
9.4893559230748501
20
-3.9546697122726315
30
-2.6645352591003757e-14
10
9.4090891647574519
20
-3.8758053435774444
30
-3.5527136788005009e-14
10
9.3422597224118835
20
-3.7845544652199554
30
-1.7763568394002505e-14
10
9.2928363129517759
20
-3.6843243714224099
30
-1.7763568394002505e-14
10
9.289046160762652
20
-3.6766379873066097
30
-1.7763568394002505e-14
10
9.2853586204521914
20
-3.66889648042164
30
-2.6645352591003757e-14
10
9.2817791865626091
20
-3.6611080461267065
30
-2.6645352591003757e-14
10
9.2647880234144182
20
-3.6241372396091194
30
-2.6645352591003757e-14
10
9.2502872828144405
20
-3.5862405465943601
30
-1.7763568394002505e-14
10
9.2384619947287465
20
-3.547587082597504
30
-1.7763568394002505e-14
10
9.2301686249587114
20
-3.5204784432564873
30
-1.7763568394002505e-14
10
9.223192139253781
20
-3.4929972226153265
30
-1.7763568394002505e-14
10
9.2176117107445741
20
-3.4652004478735448
30
-1.7763568394002505e-14
10
9.2079377083727909
20
-3.4170130973257922
30
-1.7763568394002505e-14
10
9.2024546870253108
20
-3.3678741925266991
30
-8.8817841970012523e-15
10
9.2010904098332436
20
-3.3183104101709664
30
-8.8817841970012523e-15
10
9.2008656464092518
20
-3.3101448222002414
30
-8.8817841970012523e-15
10
9.2007531546449677
20
-3.3019774686928196
30
-8.8817841970012523e-15
10
9.200752005506132
20
-3.2938124571575873
30
-8.8817841970012523e-15
10
9.2007375246634879
20
-3.1909212801673026
30
-8.8817841970012523e-15
10
9.2182405534900997
20
-3.0882245266760244
30
0
10
9.2524127289820761
20
-2.9907209216251438
30
0
10
9.2558269282755337
20
-2.9809791731212405
30
0
10
9.2594096234317611
20
-2.9712892601559213
30
0
10
9.2631530565838887
20
-2.9616756028481257
30
0
10
9.277125570178633
20
-2.925792243383833
30
0
10
9.2933554543744528
20
-2.8909062791869373
30
0
10
9.3118055370858368
20
-2.8572958930566812
30
0
10
9.3235317852725377
20
-2.8359342690694311
30
0
10
9.3361556286841498
20
-2.8150885303188034
30
8.8817841970012523e-15
10
9.3496742430953237
20
-2.7948389307258372
30
8.8817841970012523e-15
10
9.3552319221983442
20
-2.7865140556255201
30
8.8817841970012523e-15
10
9.3609414302001106
20
-2.7782895615065861
30
0
10
9.3667931411935719
20
-2.7701839327226074
30
0
10
9.3882112913146862
20
-2.7405161014993529
30
0
10
9.4115602146848669
20
-2.7123943235579846
30
0
10
9.436819742376473
20
-2.6860861223141685
30
-8.8817841970012523e-15
10
9.4444904422853977
20
-2.6780969659313305
30
-8.8817841970012523e-15
10
9.452337521318551
20
-2.6702753624593938
30
-8.8817841970012523e-15
10
9.4603608672010253
20
-2.6626296621023431
30
-8.8817841970012523e-15
10
9.472075815592822
20
-2.651466116816624
30
0
10
9.484166563880196
20
-2.6406775178724953
30
0
10
9.4966111526744488
20
-2.6302735732798013
30
0
0
LINE
5
104
100
AcDbEntity
8
0
100
AcDbLine
10
9.49764099912802
20
-2.6311461833498728
30
0.00039176864850887227
11
9.5040319171045695
21
-2.6241493717972335
31
0
0
ARC
5
105
100
AcDbEntity
8
0
100
AcDbCircle
10
10.099999550730022
20
-3.1749259414431092
30
0
40
0.81150000000000566
210
0
220
-0
230
1
100
AcDbArc
50
42.088834623935732
51
137.25675273004003
0
LINE
5
106
100
AcDbEntity
8
0
100
AcDbLine
10
9.5969590824637905
20
-0.26813212569241218
30
0
11
9.5703841957393809
21
-0.5611712014483351
31
0
0
LINE
5
107
100
AcDbEntity
8
0
100
AcDbLine
10
9.5969590824637905
20
-0.26813212569241218
30
0
11
9.7204640933357105
21
-0.53519885296075709
31
0
0
LINE
5
108
100
AcDbEntity
8
0
100
AcDbLine
10
9.4318340868240256
20
-0.30159078646322218
30
0
11
9.4220317933492677
21
-0.5956690746229153
31
0
0
LINE
5
109
100
AcDbEntity
8
0
100
AcDbLine
10
9.4318340868240256
20
-0.30159078646322218
30
0
11
9.5703841957393738
21
-0.5611712014483341
31
0
0
LINE
5
110
100
AcDbEntity
8
0
100
AcDbLine
10
9.2688885080478141
20
-0.34442166928033841
30
0
11
9.2758907808665949
21
-0.63857994759266501
31
0
0
LINE
5
111
100
AcDbEntity
8
0
100
AcDbLine
10
9.2688885080478141
20
-0.34442166928033841
30
0
11
9.4220317933492623
21
-0.59566907462291496
31
0
0
LINE
5
112
100
AcDbEntity
8
0
100
AcDbLine
10
9.1086538407445126
20
-0.39648506870650718
30
0
11
9.1324378398983335
21
-0.68976385400907836
31
0
0
LINE
5
113
100
AcDbEntity
8
0
100
AcDbLine
10
9.1086538407445126
20
-0.39648506870650718
30
0
11
9.275890780866586
21
-0.63857994759266457
31
0
0
LINE
5
114
100
AcDbEntity
8
0
100
AcDbLine
10
8.9516527370937258
20
-0.45761116475429686
30
0
11
8.992140884120909
21
-0.74905384260811747
31
0
0
LINE
5
115
100
AcDbEntity
8
0
100
AcDbLine
10
8.9516527370937258
20
-0.45761116475429686
30
0
11
9.1324378398983281
21
-0.68976385400907891
31
0
0
LINE
5
116
100
AcDbEntity
8
0
100
AcDbLine
10
8.7983973020625257
20
-0.52760057680359684
30
0
11
8.855457533043019
21
-0.8162565217705311
31
0
0
LINE
5
117
100
AcDbEntity
8
0
100
AcDbLine
10
8.7983973020625257
20
-0.52760057680359684
30
0
11
8.9921408841209001
21
-0.74905384260811891
31
0
0
LINE
5
118
100
AcDbEntity
8
0
100
AcDbLine
10
8.6493874230254981
20
-0.60622501393976069
30
0
11
8.7228336193459413
21
-0.89115269032511935
31
0
0
LINE
5
119
100
AcDbEntity
8
0
100
AcDbLine
10
8.6493874230254981
20
-0.60622501393976069
30
0
11
8.8554575330430119
21
-0.81625652177053198
31
0
0
LINE
5
120
100
AcDbEntity
8
0
100
AcDbLine
10
8.5051091392360156
20
-0.69322801959111835
30
0
11
8.5947017346699717
21
-0.97349805253739652
31
0
0
LINE
5
121
100
AcDbEntity
8
0
100
AcDbLine
10
8.5051091392360156
20
-0.69322801959111835
30
0
11
8.7228336193459359
21
-0.89115269032512046
31
0
0
LINE
5
122
100
AcDbEntity
8
0
100
AcDbLine
10
8.3660330564672325
20
-0.78832580803700703
30
0
11
8.4714798185904208
21
-1.063024014951498
31
0
0
LINE
5
123
100
AcDbEntity
8
0
100
AcDbLine
10
8.3660330564672325
20
-0.78832580803700703
30
0
11
8.5947017346699646
21
-0.97349805253739874
31
0
0
LINE
5
124
100
AcDbEntity
8
0
100
AcDbLine
10
8.2326128119938584
20
-0.89120819005780949
30
0
11
8.3535697953855816
21
-1.1594385624862036
31
0
0
LINE
5
125
100
AcDbEntity
8
0
100
AcDbLine
10
8.2326128119938584
20
-0.89120819005780949
30
0
11
8.4714798185904137
21
-1.0630240149515013
31
0
0
LINE
5
126
100
AcDbEntity
8
0
100
AcDbLine
10
8.1052835949216711
20
-1.0015395847077073
30
0
11
8.2413562630432882
21
-1.2624272109274359
31
0
0
LINE
5
127
100
AcDbEntity
8
0
100
AcDbLine
10
8.1052835949216711
20
-1.0015395847077073
30
0
11
8.3535697953855763
21
-1.1594385624862058
31
0
0
LINE
5
128
100
AcDbEntity
8
0
100
AcDbLine
10
7.9844607266910863
20
-1.1189601139099847
30
0
11
8.1352052387821967
21
-1.3716540327104054
31
0
0
LINE
5
129
100
AcDbEntity
8
0
100
AcDbLine
10
7.9844607266910863
20
-1.1189601139099847
30
0
11
8.2413562630432793
21
-1.2624272109274381
31
0
0
LINE
5
130
100
AcDbEntity
8
0
100
AcDbLine
10
7.8705383063849652
20
-1.2430867763045106
30
0
11
8.03546296517972
21
-1.4867627526455007
31
0
0
LINE
5
131
100
AcDbEntity
8
0
100
AcDbLine
10
7.8705383063849652
20
-1.2430867763045106
30
0
11
8.1352052387821914
21
-1.3716540327104099
31
0
0
LINE
5
132
100
AcDbEntity
8
0
100
AcDbLine
10
7.763887925259314
20
-1.3735146965185585
30
0
11
7.9424547808006887
21
-1.6073779100138974
31
0
0
LINE
5
133
100
AcDbEntity
8
0
100
AcDbLine
10
7.763887925259314
20
-1.3735146965185585
30
0
11
8.0354629651797147
21
-1.4867627526455041
31
0
0
LINE
5
134
100
AcDbEntity
8
0
100
AcDbLine
10
7.6648574546898445
20
-1.5098184457861308
30
0
11
7.8564840590105867
21
-1.7331060832423995
31
0
0
LINE
5
135
100
AcDbEntity
8
0
100
AcDbLine
10
7.6648574546898445
20
-1.5098184457861308
30
0
11
7.9424547808006825
21
-1.6073779100139018
31
0
0
LINE
5
136
100
AcDbEntity
8
0
100
AcDbLine
10
7.5737699114878376
20
-1.6515534296081635
30
0
11
7.7778312184346818
21
-1.8635371731628203
31
0
0
LINE
5
137
100
AcDbEntity
8
0
100
AcDbLine
10
7.5737699114878376
20
-1.6515534296081635
30
0
11
7.8564840590105813
21
-1.733106083242405
31
0
0
LINE
5
138
100
AcDbEntity
8
0
100
AcDbLine
10
7.4909224042864739
20
-1.7982573379273625
30
0
11
7.7067528082907639
21
-1.9982457406702359
31
0
0
LINE
5
139
100
AcDbEntity
8
0
100
AcDbLine
10
7.4909224042864739
20
-1.7982573379273625
30
0
11
7.7778312184346792
21
-1.8635371731628247
31
0
0
LINE
5
140
100
AcDbEntity
8
0
100
AcDbLine
10
7.4165851644341956
20
-1.9494516530875339
30
0
11
7.6434806715789092
21
-2.1367923944169185
31
0
0
LINE
5
141
100
AcDbEntity
8
0
100
AcDbLine
10
7.4165851644341956
20
-1.9494516530875339
30
0
11
7.7067528082907577
21
-1.9982457406702403
31
0
0
LINE
5
142
100
AcDbEntity
8
0
100
AcDbLine
10
7.3510006645562411
20
-2.1046432106587076
30
0
11
7.588221188857819
21
-2.2787252240155889
31
0
0
LINE
5
143
100
AcDbEntity
8
0
100
AcDbLine
10
7.3510006645562411
20
-2.1046432106587076
30
0
11
7.6434806715789065
21
-2.1367923944169256
31
0
0
LINE
5
144
100
AcDbEntity
8
0
100
AcDbLine
10
7.2943828276593212
20
-2.2633258080370044
30
0
11
7.5411546050743175
21
-2.4235812740771498
31
0
0
LINE
5
145
100
AcDbEntity
8
0
100
AcDbLine
10
7.2943828276593212
20
-2.2633258080370044
30
0
11
7.5882211888578146
21
-2.2787252240155942
31
0
0
LINE
5
146
100
AcDbEntity
8
0
100
AcDbLine
10
7.2469163293592498
20
-2.4249818555723115
30
0
11
7.5024344416418085
21
-2.5708880542749646
31
0
0
LINE
5
147
100
AcDbEntity
8
0
100
AcDbLine
10
7.2469163293592498
20
-2.4249818555723115
30
0
11
7.5411546050743112
21
-2.4235812740771556
31
0
0
LINE
5
148
100
AcDbEntity
8
0
100
AcDbLine
10
7.2087559955074623
20
-2.5890840648381497
30
0
11
7.4721869956853393
21
-2.7201650805100752
31
0
0
LINE
5
149
100
AcDbEntity
8
0
100
AcDbLine
10
7.2087559955074623
20
-2.5890840648381497
30
0
11
7.502434441641805
21
-2.5708880542749712
31
0
0
LINE
5
150
100
AcDbEntity
8
0
100
AcDbLine
10
7.1800262971812696
20
-2.7550971685369099
30
0
11
7.4505109280866177
21
-2.8709254421504724
31
0
0
LINE
5
151
100
AcDbEntity
8
0
100
AcDbLine
10
7.1800262971812696
20
-2.7550971685369099
30
0
11
7.4721869956853357
21
-2.7201650805100828
31
0
0
LINE
5
152
100
AcDbEntity
8
0
100
AcDbLine
10
7.1608209446850815
20
-2.9224796664305206
30
0
11
7.4374769416727302
21
-3.0226773902323645
31
0
0
LINE
5
153
100
AcDbEntity
8
0
100
AcDbLine
10
7.1608209446850815
20
-2.9224796664305206
30
0
11
7.4505109280866142
21
-2.8709254421504768
31
0
0
LINE
5
154
100
AcDbEntity
8
0
100
AcDbLine
10
7.1512025818868619
20
-3.0906855916016953
30
0
11
7.4331275505982166
21
-3.174925941443103
31
0
0
LINE
5
155
100
AcDbEntity
8
0
100
AcDbLine
10
7.1512025818868619
20
-3.0906855916016953
30
0
11
7.4374769416727284
21
-3.0226773902323725
31
0
0
LINE
5
156
100
AcDbEntity
8
0
100
AcDbLine
10
7.1512025818868619
20
-3.2591662912845045
30
0
11
7.4374769416727293
21
-3.327174492653838
31
0
0
LINE
5
157
100
AcDbEntity
8
0
100
AcDbLine
10
7.1512025818868619
20
-3.2591662912845045
30
0
11
7.433127550598214
21
-3.1749259414431097
31
0
0
LINE
5
158
100
AcDbEntity
8
0
100
AcDbLine
10
7.1608209446850797
20
-3.4273722164556766
30
0
11
7.4505109280866177
21
-3.4789264407357323
31
0
0
LINE
5
159
100
AcDbEntity
8
0
100
AcDbLine
10
7.1608209446850797
20
-3.4273722164556766
30
0
11
7.4374769416727293
21
-3.3271744926538451
31
0
0
LINE
5
160
100
AcDbEntity
8
0
100
AcDbLine
10
7.1800262971812669
20
-3.5947547143492908
30
0
11
7.4721869956853375
21
-3.6296868023761286
31
0
0
LINE
5
161
100
AcDbEntity
8
0
100
AcDbLine
10
7.1800262971812669
20
-3.5947547143492908
30
0
11
7.4505109280866142
21
-3.4789264407357399
31
0
0
LINE
5
162
100
AcDbEntity
8
0
100
AcDbLine
10
7.2087559955074587
20
-3.7607678180480475
30
0
11
7.5024344416418067
21
-3.778963828611237
31
0
0
LINE
5
163
100
AcDbEntity
8
0
100
AcDbLine
10
7.2087559955074587
20
-3.7607678180480475
30
0
11
7.4721869956853375
21
-3.6296868023761339
31
0
0
LINE
5
164
100
AcDbEntity
8
0
100
AcDbLine
10
7.2469163293592427
20
-3.9248700273138857
30
0
11
7.5411546050743112
21
-3.9262706088090527
31
0
0
LINE
5
165
100
AcDbEntity
8
0
100
AcDbLine
10
7.2469163293592427
20
-3.9248700273138857
30
0
11
7.5024344416418041
21
-3.7789638286112459
31
0
0
LINE
5
166
100
AcDbEntity
8
0
100
AcDbLine
10
7.2943828276593141
20
-4.0865260748491972
30
0
11
7.5882211888578137
21
-4.0711266588706172
31
0
0
LINE
5
167
100
AcDbEntity
8
0
100
AcDbLine
10
7.2943828276593141
20
-4.0865260748491972
30
0
11
7.5411546050743112
21
-3.9262706088090615
31
0
0
LINE
5
168
100
AcDbEntity
8
0
100
AcDbLine
10
7.3510006645562322
20
-4.2452086722274904
30
0
11
7.643480671578903
21
-4.213059488469284
31
0
0
LINE
5
169
100
AcDbEntity
8
0
100
AcDbLine
10
7.3510006645562322
20
-4.2452086722274904
30
0
11
7.5882211888578119
21
-4.0711266588706216
31
0
0
LINE
5
170
100
AcDbEntity
8
0
100
AcDbLine
10
7.4165851644341867
20
-4.4004002297986657
30
0
11
7.706752808290755
21
-4.35160614221597
31
0
0
LINE
5
171
100
AcDbEntity
8
0
100
AcDbLine
10
7.4165851644341867
20
-4.4004002297986657
30
0
11
7.6434806715789039
21
-4.213059488469292
31
0
0
LINE
5
172
100
AcDbEntity
8
0
100
AcDbLine
10
7.4909224042864615
20
-4.5515945449588378
30
0
11
7.7778312184346738
21
-4.486314709723386
31
0
0
LINE
5
173
100
AcDbEntity
8
0
100
AcDbLine
10
7.4909224042864615
20
-4.5515945449588378
30
0
11
7.7067528082907568
21
-4.3516061422159771
31
0
0
LINE
5
174
100
AcDbEntity
8
0
100
AcDbLine
10
7.5737699114878287
20
-4.6982984532780385
30
0
11
7.8564840590105787
21
-4.6167457996438044
31
0
0
LINE
5
175
100
AcDbEntity
8
0
100
AcDbLine
10
7.5737699114878287
20
-4.6982984532780385
30
0
11
7.7778312184346765
21
-4.4863147097233922
31
0
0
LINE
5
176
100
AcDbEntity
8
0
100
AcDbLine
10
7.6648574546898329
20
-4.8400334371000699
30
0
11
7.9424547808006807
21
-4.7424739728723067
31
0
0
LINE
5
177
100
AcDbEntity
8
0
100
AcDbLine
10
7.6648574546898329
20
-4.8400334371000699
30
0
11
7.8564840590105796
21
-4.6167457996438124
31
0
0
LINE
5
178
100
AcDbEntity
8
0
100
AcDbLine
10
7.7638879252593025
20
-4.9763371863676431
30
0
11
8.0354629651797111
21
-4.8630891302407067
31
0
0
LINE
5
179
100
AcDbEntity
8
0
100
AcDbLine
10
7.7638879252593025
20
-4.9763371863676431
30
0
11
7.9424547808006825
21
-4.7424739728723146
31
0
0
LINE
5
180
100
AcDbEntity
8
0
100
AcDbLine
10
7.8705383063849528
20
-5.106765106581693
30
0
11
8.1352052387821878
21
-4.9781978501758006
31
0
0
LINE
5
181
100
AcDbEntity
8
0
100
AcDbLine
10
7.8705383063849528
20
-5.106765106581693
30
0
11
8.0354629651797147
21
-4.8630891302407147
31
0
0
LINE
5
182
100
AcDbEntity
8
0
100
AcDbLine
10
7.9844607266910721
20
-5.2308917689762175
30
0
11
8.2413562630432775
21
-5.0874246719587717
31
0
0
LINE
5
183
100
AcDbEntity
8
0
100
AcDbLine
10
7.9844607266910721
20
-5.2308917689762175
30
0
11
8.1352052387821896
21
-4.9781978501758086
31
0
0
LINE
5
184
100
AcDbEntity
8
0
100
AcDbLine
10
8.1052835949216533
20
-5.3483122981784978
30
0
11
8.353569795385571
21
-5.1904133204000047
31
0
0
LINE
5
185
100
AcDbEntity
8
0
100
AcDbLine
10
8.1052835949216533
20
-5.3483122981784978
30
0
11
8.2413562630432775
21
-5.0874246719587779
31
0
0
LINE
5
186
100
AcDbEntity
8
0
100
AcDbLine
10
8.2326128119938442
20
-5.4586436928283977
30
0
11
8.4714798185904101
21
-5.2868278679347105
31
0
0
LINE
5
187
100
AcDbEntity
8
0
100
AcDbLine
10
8.2326128119938442
20
-5.4586436928283977
30
0
11
8.3535697953855745
21
-5.1904133204000127
31
0
0
LINE
5
188
100
AcDbEntity
8
0
100
AcDbLine
10
8.3660330564672165
20
-5.5615260748491995
30
0
11
8.594701734669961
21
-5.3763538303488119
31
0
0
LINE
5
189
100
AcDbEntity
8
0
100
AcDbLine
10
8.3660330564672165
20
-5.5615260748491995
30
0
11
8.4714798185904137
21
-5.2868278679347167
31
0
0
LINE
5
190
100
AcDbEntity
8
0
100
AcDbLine
10
8.5051091392359961
20
-5.6566238632950894
30
0
11
8.722833619345927
21
-5.4586991925610917
31
0
0
LINE
5
191
100
AcDbEntity
8
0
100
AcDbLine
10
8.5051091392359961
20
-5.6566238632950894
30
0
11
8.5947017346699628
21
-5.3763538303488181
31
0
0
LINE
5
192
100
AcDbEntity
8
0
100
AcDbLine
10
8.6493874230254821
20
-5.743626868946448
30
0
11
8.8554575330430083
21
-5.5335953611156814
31
0
0
LINE
5
193
100
AcDbEntity
8
0
100
AcDbLine
10
8.6493874230254821
20
-5.743626868946448
30
0
11
8.7228336193459359
21
-5.458699192561097
31
0
0
LINE
5
194
100
AcDbEntity
8
0
100
AcDbLine
10
8.7983973020625097
20
-5.8222513060826131
30
0
11
8.992140884120893
21
-5.6007980402780957
31
0
0
LINE
5
195
100
AcDbEntity
8
0
100
AcDbLine
10
8.7983973020625097
20
-5.8222513060826131
30
0
11
8.8554575330430136
21
-5.5335953611156867
31
0
0
LINE
5
196
100
AcDbEntity
8
0
100
AcDbLine
10
8.9516527370937045
20
-5.892240718131915
30
0
11
9.1324378398983193
21
-5.6600880288771354
31
0
0
LINE
5
197
100
AcDbEntity
8
0
100
AcDbLine
10
8.9516527370937045
20
-5.892240718131915
30
0
11
8.9921408841208983
21
-5.6007980402781001
31
0
0
LINE
5
198
100
AcDbEntity
8
0
100
AcDbLine
10
9.1086538407444912
20
-5.953366814179704
30
0
11
9.2758907808665789
21
-5.7112719352935484
31
0
0
LINE
5
199
100
AcDbEntity
8
0
100
AcDbLine
10
9.1086538407444912
20
-5.953366814179704
30
0
11
9.1324378398983246
21
-5.6600880288771389
31
0
0
LINE
5
200
100
AcDbEntity
8
0
100
AcDbLine
10
9.268888508047791
20
-6.005430213605873
30
0
11
9.4220317933492517
21
-5.7541828082632982
31
0
0
LINE
5
201
100
AcDbEntity
8
0
100
AcDbLine
10
9.268888508047791
20
-6.005430213605873
30
0
11
9.2758907808665843
21
-5.7112719352935537
31
0
0
LINE
5
202
100
AcDbEntity
8
0
100
AcDbLine
10
9.431834086824006
20
-6.0482610964229906
30
0
11
9.5703841957393649
21
-5.7886806814378797
31
0
0
LINE
5
203
100
AcDbEntity
8
0
100
AcDbLine
10
9.431834086824006
20
-6.0482610964229906
30
0
11
9.4220317933492606
21
-5.7541828082633035
31
0
0
LINE
5
204
100
AcDbEntity
8
0
100
AcDbLine
10
9.5969590824637692
20
-6.0817197571938024
30
0
11
9.7204640933357016
21
-5.8146530299254575
31
0
0
LINE
5
205
100
AcDbEntity
8
0
100
AcDbLine
10
9.5969590824637692
20
-6.0817197571938024
30
0
11
9.5703841957393703
21
-5.7886806814378833
31
0
0
LINE
5
206
100
AcDbEntity
8
0
100
AcDbLine
10
9.7637248915529167
20
-6.1056970607213321
30
0
11
9.8717819567067533
21
-5.832015137323677
31
0
0
LINE
5
207
100
AcDbEntity
8
0
100
AcDbLine
10
9.7637248915529167
20
-6.1056970607213321
30
0
11
9.7204640933357087
21
-5.8146530299254611
31
0
0
LINE
5
208
100
AcDbEntity
8
0
100
AcDbLine
10
9.9315875586848446
20
-6.1201147980252104
30
0
11
10.023844218433965
21
-5.8407103720469591
31
0
0
LINE
5
209
100
AcDbEntity
8
0
100
AcDbLine
10
9.9315875586848446
20
-6.1201147980252104
30
0
11
9.8717819567067604
21
-5.8320151373236806
31
0
0
LINE
5
210
100
AcDbEntity
8
0
100
AcDbLine
10
10.099999550730011
20
-6.1249259414431094
30
0
11
10.176154883026065
21
-5.8407103720469582
31
0
0
LINE
5
211
100
AcDbEntity
8
0
100
AcDbLine
10
10.099999550730011
20
-6.1249259414431094
30
0
11
10.02384421843397
21
-5.84071037204696
31
0
0
LINE
5
212
100
AcDbEntity
8
0
100
AcDbLine
10
10.268411542775176
20
-6.1201147980252113
30
0
11
10.328217144753271
21
-5.8320151373236779
31
0
0
LINE
5
213
100
AcDbEntity
8
0
100
AcDbLine
10
10.268411542775176
20
-6.1201147980252113
30
0
11
10.176154883026069
21
-5.8407103720469609
31
0
0
LINE
5
214
100
AcDbEntity
8
0
100
AcDbLine
10
10.436274209907106
20
-6.1056970607213348
30
0
11
10.479535008124326
21
-5.8146530299254611
31
0
0
LINE
5
215
100
AcDbEntity
8
0
100
AcDbLine
10
10.436274209907106
20
-6.1056970607213348
30
0
11
10.32821714475328
21
-5.8320151373236806
31
0
0
LINE
5
216
100
AcDbEntity
8
0
100
AcDbLine
10
10.603040018996253
20
-6.081719757193806
30
0
11
10.629614905720661
21
-5.7886806814378833
31
0
0
LINE
5
217
100
AcDbEntity
8
0
100
AcDbLine
10
10.603040018996253
20
-6.081719757193806
30
0
11
10.47953500812433
21
-5.8146530299254611
31
0
0
LINE
5
218
100
AcDbEntity
8
0
100
AcDbLine
10
10.768165014636015
20
-6.0482610964229968
30
0
11
10.777967308110771
21
-5.7541828082633035
31
0
0
LINE
5
219
100
AcDbEntity
8
0
100
AcDbLine
10
10.768165014636015
20
-6.0482610964229968
30
0
11
10.629614905720668
21
-5.7886806814378842
31
0
0
LINE
5
220
100
AcDbEntity
8
0
100
AcDbLine
10
10.931110593412232
20
-6.005430213605881
30
0
11
10.924108320593451
21
-5.7112719352935546
31
0
0
LINE
5
221
100
AcDbEntity
8
0
100
AcDbLine
10
10.931110593412232
20
-6.005430213605881
30
0
11
10.777967308110785
21
-5.7541828082633035
31
0
0
LINE
5
222
100
AcDbEntity
8
0
100
AcDbLine
10
11.091345260715531
20
-5.9533668141797129
30
0
11
11.067561261561707
21
-5.6600880288771407
31
0
0
LINE
5
223
100
AcDbEntity
8
0
100
AcDbLine
10
11.091345260715531
20
-5.9533668141797129
30
0
11
10.924108320593454
21
-5.7112719352935546
31
0
0
LINE
5
224
100
AcDbEntity
8
0
100
AcDbLine
10
11.248346364366316
20
-5.8922407181319212
30
0
11
11.207858217339135
21
-5.600798040278101
31
0
0
LINE
5
225
100
AcDbEntity
8
0
100
AcDbLine
10
11.248346364366316
20
-5.8922407181319212
30
0
11
11.067561261561716
21
-5.6600880288771389
31
0
0
LINE
5
226
100
AcDbEntity
8
0
100
AcDbLine
10
11.401601799397515
20
-5.822251306082622
30
0
11
11.344541568417021
21
-5.5335953611156885
31
0
0
LINE
5
227
100
AcDbEntity
8
0
100
AcDbLine
10
11.401601799397515
20
-5.822251306082622
30
0
11
11.20785821733914
21
-5.600798040278101
31
0
0
LINE
5
228
100
AcDbEntity
8
0
100
AcDbLine
10
11.550611678434544
20
-5.7436268689464587
30
0
11
11.477165482114099
21
-5.4586991925611006
31
0
0
LINE
5
229
100
AcDbEntity
8
0
100
AcDbLine
10
11.550611678434544
20
-5.7436268689464587
30
0
11
11.34454156841703
21
-5.5335953611156885
31
0
0
LINE
5
230
100
AcDbEntity
8
0
100
AcDbLine
10
11.694889962224021
20
-5.6566238632951009
30
0
11
11.605297366790065
21
-5.3763538303488208
31
0
0
LINE
5
231
100
AcDbEntity
8
0
100
AcDbLine
10
11.694889962224021
20
-5.6566238632951009
30
0
11
11.477165482114104
21
-5.4586991925610988
31
0
0
LINE
5
232
100
AcDbEntity
8
0
100
AcDbLine
10
11.833966044992806
20
-5.561526074849211
30
0
11
11.72851928286962
21
-5.2868278679347203
31
0
0
LINE
5
233
100
AcDbEntity
8
0
100
AcDbLine
10
11.833966044992806
20
-5.561526074849211
30
0
11
11.605297366790076
21
-5.376353830348819
31
0
0
LINE
5
234
100
AcDbEntity
8
0
100
AcDbLine
10
11.967386289466182
20
-5.458643692828411
30
0
11
11.846429306074459
21
-5.1904133204000154
31
0
0
LINE
5
235
100
AcDbEntity
8
0
100
AcDbLine
10
11.967386289466182
20
-5.458643692828411
30
0
11
11.728519282869627
21
-5.2868278679347185
31
0
0
LINE
5
236
100
AcDbEntity
8
0
100
AcDbLine
10
12.094715506538369
20
-5.3483122981785112
30
0
11
11.958642838416754
21
-5.0874246719587823
31
0
0
LINE
5
237
100
AcDbEntity
8
0
100
AcDbLine
10
12.094715506538369
20
-5.3483122981785112
30
0
11
11.846429306074464
21
-5.1904133204000127
31
0
0
LINE
5
238
100
AcDbEntity
8
0
100
AcDbLine
10
12.215538374768954
20
-5.2308917689762335
30
0
11
12.064793862677842
21
-4.9781978501758131
31
0
0
LINE
5
239
100
AcDbEntity
8
0
100
AcDbLine
10
12.215538374768954
20
-5.2308917689762335
30
0
11
11.958642838416759
21
-5.0874246719587806
31
0
0
LINE
5
240
100
AcDbEntity
8
0
100
AcDbLine
10
12.329460795075079
20
-5.1067651065817081
30
0
11
12.164536136280324
21
-4.8630891302407182
31
0
0
LINE
5
241
100
AcDbEntity
8
0
100
AcDbLine
10
12.329460795075079
20
-5.1067651065817081
30
0
11
12.064793862677853
21
-4.9781978501758086
31
0
0
LINE
5
242
100
AcDbEntity
8
0
100
AcDbLine
10
12.436111176200729
20
-4.9763371863676609
30
0
11
12.257544320659353
21
-4.7424739728723209
31
0
0
LINE
5
243
100
AcDbEntity
8
0
100
AcDbLine
10
12.436111176200729
20
-4.9763371863676609
30
0
11
12.164536136280329
21
-4.8630891302407155
31
0
0
LINE
5
244
100
AcDbEntity
8
0
100
AcDbLine
10
12.535141646770196
20
-4.8400334371000895
30
0
11
12.343515042449454
21
-4.6167457996438204
31
0
0
LINE
5
245
100
AcDbEntity
8
0
100
AcDbLine
10
12.535141646770196
20
-4.8400334371000895
30
0
11
12.257544320659356
21
-4.7424739728723182
31
0
0
LINE
5
246
100
AcDbEntity
8
0
100
AcDbLine
10
12.626229189972204
20
-4.6982984532780563
30
0
11
12.422167883025361
21
-4.4863147097233993
31
0
0
LINE
5
247
100
AcDbEntity
8
0
100
AcDbLine
10
12.626229189972204
20
-4.6982984532780563
30
0
11
12.343515042449461
21
-4.616745799643815
31
0
0
LINE
5
248
100
AcDbEntity
8
0
100
AcDbLine
10
12.709076697173568
20
-4.5515945449588564
30
0
11
12.493246293169278
21
-4.3516061422159833
31
0
0
LINE
5
249
100
AcDbEntity
8
0
100
AcDbLine
10
12.709076697173568
20
-4.5515945449588564
30
0
11
12.422167883025363
21
-4.486314709723394
31
0
0
LINE
5
250
100
AcDbEntity
8
0
100
AcDbLine
10
12.783413937025847
20
-4.4004002297986826
30
0
11
12.556518429881134
21
-4.2130594884692982
31
0
0
LINE
5
251
100
AcDbEntity
8
0
100
AcDbLine
10
12.783413937025847
20
-4.4004002297986826
30
0
11
12.493246293169285
21
-4.3516061422159771
31
0
0
LINE
5
252
100
AcDbEntity
8
0
100
AcDbLine
10
12.848998436903802
20
-4.2452086722275109
30
0
11
12.611777912602221
21
-4.0711266588706314
31
0
0
LINE
5
253
100
AcDbEntity
8
0
100
AcDbLine
10
12.848998436903802
20
-4.2452086722275109
30
0
11
12.556518429881137
21
-4.2130594884692938
31
0
0
LINE
5
254
100
AcDbEntity
8
0
100
AcDbLine
10
12.905616273800721
20
-4.086526074849214
30
0
11
12.658844496385726
21
-3.9262706088090686
31
0
0
LINE
5
255
100
AcDbEntity
8
0
100
AcDbLine
10
12.905616273800721
20
-4.086526074849214
30
0
11
12.611777912602228
21
-4.0711266588706243
31
0
0
LINE
5
256
100
AcDbEntity
8
0
100
AcDbLine
10
12.953082772100792
20
-3.9248700273139088
30
0
11
12.697564659818232
21
-3.7789638286112552
31
0
0
LINE
5
257
100
AcDbEntity
8
0
100
AcDbLine
10
12.953082772100792
20
-3.9248700273139088
30
0
11
12.658844496385729
21
-3.9262706088090633
31
0
0
LINE
5
258
100
AcDbEntity
8
0
100
AcDbLine
10
12.991243105952579
20
-3.7607678180480697
30
0
11
12.727812105774703
21
-3.6296868023761442
31
0
0
LINE
5
259
100
AcDbEntity
8
0
100
AcDbLine
10
12.991243105952579
20
-3.7607678180480697
30
0
11
12.697564659818237
21
-3.7789638286112481
31
0
0
LINE
5
260
100
AcDbEntity
8
0
100
AcDbLine
10
13.019972804278773
20
-3.5947547143493108
30
0
11
12.749488173373425
21
-3.478926440735747
31
0
0
LINE
5
261
100
AcDbEntity
8
0
100
AcDbLine
10
13.019972804278773
20
-3.5947547143493108
30
0
11
12.727812105774705
21
-3.6296868023761366
31
0
0
LINE
5
262
100
AcDbEntity
8
0
100
AcDbLine
10
13.039178156774959
20
-3.4273722164556988
30
0
11
12.762522159787311
21
-3.3271744926538549
31
0
0
LINE
5
263
100
AcDbEntity
8
0
100
AcDbLine
10
13.039178156774959
20
-3.4273722164556988
30
0
11
12.749488173373427
21
-3.4789264407357425
31
0
0
LINE
5
264
100
AcDbEntity
8
0
100
AcDbLine
10
13.04879651957318
20
-3.2591662912845254
30
0
11
12.766871550861827
21
-3.1749259414431186
31
0
0
LINE
5
265
100
AcDbEntity
8
0
100
AcDbLine
10
13.04879651957318
20
-3.2591662912845254
30
0
11
12.762522159787315
21
-3.3271744926538496
31
0
0
LINE
5
266
100
AcDbEntity
8
0
100
AcDbLine
10
13.04879651957318
20
-3.090685591601714
30
0
11
12.762522159787313
21
-3.0226773902323787
31
0
0
LINE
5
267
100
AcDbEntity
8
0
100
AcDbLine
10
13.04879651957318
20
-3.090685591601714
30
0
11
12.766871550861827
21
-3.1749259414431075
31
0
0
LINE
5
268
100
AcDbEntity
8
0
100
AcDbLine
10
13.039178156774963
20
-2.9224796664305428
30
0
11
12.749488173373427
21
-2.8709254421504871
31
0
0
LINE
5
269
100
AcDbEntity
8
0
100
AcDbLine
10
13.039178156774963
20
-2.9224796664305428
30
0
11
12.762522159787315
21
-3.0226773902323743
31
0
0
LINE
5
270
100
AcDbEntity
8
0
100
AcDbLine
10
13.019972804278776
20
-2.7550971685369285
30
0
11
12.727812105774705
21
-2.7201650805100908
31
0
0
LINE
5
271
100
AcDbEntity
8
0
100
AcDbLine
10
13.019972804278776
20
-2.7550971685369285
30
0
11
12.749488173373429
21
-2.8709254421504795
31
0
0
LINE
5
272
100
AcDbEntity
8
0
100
AcDbLine
10
12.991243105952586
20
-2.5890840648381719
30
0
11
12.697564659818237
21
-2.5708880542749823
31
0
0
LINE
5
273
100
AcDbEntity
8
0
100
AcDbLine
10
12.991243105952586
20
-2.5890840648381719
30
0
11
12.727812105774706
21
-2.7201650805100854
31
0
0
LINE
5
274
100
AcDbEntity
8
0
100
AcDbLine
10
12.953082772100796
20
-2.4249818555723337
30
0
11
12.658844496385731
21
-2.4235812740771658
31
0
0
LINE
5
275
100
AcDbEntity
8
0
100
AcDbLine
10
12.953082772100796
20
-2.4249818555723337
30
0
11
12.697564659818237
21
-2.5708880542749735
31
0
0
LINE
5
276
100
AcDbEntity
8
0
100
AcDbLine
10
12.905616273800728
20
-2.2633258080370244
30
0
11
12.611777912602228
21
-2.278725224015604
31
0
0
LINE
5
277
100
AcDbEntity
8
0
100
AcDbLine
10
12.905616273800728
20
-2.2633258080370244
30
0
11
12.658844496385731
21
-2.4235812740771587
31
0
0
LINE
5
278
100
AcDbEntity
8
0
100
AcDbLine
10
12.848998436903811
20
-2.1046432106587298
30
0
11
12.556518429881137
21
-2.1367923944169362
31
0
0
LINE
5
279
100
AcDbEntity
8
0
100
AcDbLine
10
12.848998436903811
20
-2.1046432106587298
30
0
11
12.611777912602232
21
-2.2787252240155977
31
0
0
LINE
5
280
100
AcDbEntity
8
0
100
AcDbLine
10
12.783413937025854
20
-1.9494516530875561
30
0
11
12.493246293169285
21
-1.9982457406702514
31
0
0
LINE
5
281
100
AcDbEntity
8
0
100
AcDbLine
10
12.783413937025854
20
-1.9494516530875561
30
0
11
12.556518429881137
21
-2.13679239441693
31
0
0
LINE
5
282
100
AcDbEntity
8
0
100
AcDbLine
10
12.709076697173579
20
-1.7982573379273803
30
0
11
12.422167883025368
21
-1.8635371731628336
31
0
0
LINE
5
283
100
AcDbEntity
8
0
100
AcDbLine
10
12.709076697173579
20
-1.7982573379273803
30
0
11
12.493246293169285
21
-1.9982457406702425
31
0
0
LINE
5
284
100
AcDbEntity
8
0
100
AcDbLine
10
12.626229189972216
20
-1.6515534296081824
30
0
11
12.343515042449464
21
-1.7331060832424139
31
0
0
LINE
5
285
100
AcDbEntity
8
0
100
AcDbLine
10
12.626229189972216
20
-1.6515534296081824
30
0
11
12.422167883025368
21
-1.863537173162827
31
0
0
LINE
5
286
100
AcDbEntity
8
0
100
AcDbLine
10
12.535141646770212
20
-1.5098184457861497
30
0
11
12.257544320659362
21
-1.6073779100139129
31
0
0
LINE
5
287
100
AcDbEntity
8
0
100
AcDbLine
10
12.535141646770212
20
-1.5098184457861497
30
0
11
12.343515042449463
21
-1.7331060832424072
31
0
0
LINE
5
288
100
AcDbEntity
8
0
100
AcDbLine
10
12.436111176200741
20
-1.3735146965185763
30
0
11
12.164536136280333
21
-1.4867627526455129
31
0
0
LINE
5
289
100
AcDbEntity
8
0
100
AcDbLine
10
12.436111176200741
20
-1.3735146965185763
30
0
11
12.257544320659362
21
-1.6073779100139052
31
0
0
LINE
5
290
100
AcDbEntity
8
0
100
AcDbLine
10
12.329460795075091
20
-1.2430867763045261
30
0
11
12.064793862677856
21
-1.3716540327104176
31
0
0
LINE
5
291
100
AcDbEntity
8
0
100
AcDbLine
10
12.329460795075091
20
-1.2430867763045261
30
0
11
12.164536136280331
21
-1.4867627526455063
31
0
0
LINE
5
292
100
AcDbEntity
8
0
100
AcDbLine
10
12.21553837476897
20
-1.1189601139100014
30
0
11
11.958642838416766
21
-1.2624272109274481
31
0
0
LINE
5
293
100
AcDbEntity
8
0
100
AcDbLine
10
12.21553837476897
20
-1.1189601139100014
30
0
11
12.064793862677853
21
-1.371654032710411
31
0
0
LINE
5
294
100
AcDbEntity
8
0
100
AcDbLine
10
12.094715506538389
20
-1.0015395847077235
30
0
11
11.846429306074473
21
-1.1594385624862158
31
0
0
LINE
5
295
100
AcDbEntity
8
0
100
AcDbLine
10
12.094715506538389
20
-1.0015395847077235
30
0
11
11.958642838416766
21
-1.2624272109274426
31
0
0
LINE
5
296
100
AcDbEntity
8
0
100
AcDbLine
10
11.9673862894662
20
-0.89120819005782392
30
0
11
11.728519282869634
21
-1.0630240149515102
31
0
0
LINE
5
297
100
AcDbEntity
8
0
100
AcDbLine
10
11.9673862894662
20
-0.89120819005782392
30
0
11
11.846429306074469
21
-1.1594385624862091
31
0
0
LINE
5
298
100
AcDbEntity
8
0
100
AcDbLine
10
11.833966044992827
20
-0.78832580803702035
30
0
11
11.605297366790083
21
-0.97349805253740707
31
0
0
LINE
5
299
100
AcDbEntity
8
0
100
AcDbLine
10
11.833966044992827
20
-0.78832580803702035
30
0
11
11.72851928286963
21
-1.0630240149515024
31
0
0
LINE
5
300
100
AcDbEntity
8
0
100
AcDbLine
10
11.694889962224044
20
-0.6932280195911289
30
0
11
11.477165482114113
21
-0.89115269032512656
31
0
0
LINE
5
301
100
AcDbEntity
8
0
100
AcDbLine
10
11.694889962224044
20
-0.6932280195911289
30
0
11
11.605297366790079
21
-0.9734980525374004
31
0
0
LINE
5
302
100
AcDbEntity
8
0
100
AcDbLine
10
11.550611678434564
20
-0.60622501393977068
30
0
11
11.344541568417037
21
-0.81625652177053754
31
0
0
LINE
5
303
100
AcDbEntity
8
0
100
AcDbLine
10
11.550611678434564
20
-0.60622501393977068
30
0
11
11.47716548211411
21
-0.89115269032512101
31
0
0
LINE
5
304
100
AcDbEntity
8
0
100
AcDbLine
10
11.401601799397534
20
-0.52760057680360517
30
0
11
11.207858217339147
21
-0.7490538426081228
31
0
0
LINE
5
305
100
AcDbEntity
8
0
100
AcDbLine
10
11.401601799397534
20
-0.52760057680360517
30
0
11
11.34454156841703
21
-0.81625652177053198
31
0
0
LINE
5
306
100
AcDbEntity
8
0
100
AcDbLine
10
11.24834636436634
20
-0.45761116475430519
30
0
11
11.067561261561725
21
-0.68976385400908502
31
0
0
LINE
5
307
100
AcDbEntity
8
0
100
AcDbLine
10
11.24834636436634
20
-0.45761116475430519
30
0
11
11.207858217339144
21
-0.74905384260812002
31
0
0
LINE
5
308
100
AcDbEntity
8
0
100
AcDbLine
10
11.091345260715553
20
-0.39648506870651357
30
0
11
10.924108320593465
21
-0.63857994759266845
31
0
0
LINE
5
309
100
AcDbEntity
8
0
100
AcDbLine
10
11.091345260715553
20
-0.39648506870651357
30
0
11
11.067561261561718
21
-0.68976385400907836
31
0
0
LINE
5
310
100
AcDbEntity
8
0
100
AcDbLine
10
10.931110593412248
20
-0.34442166928034423
30
0
11
10.777967308110787
21
-0.59566907462291929
31
0
0
LINE
5
311
100
AcDbEntity
8
0
100
AcDbLine
10
10.931110593412248
20
-0.34442166928034423
30
0
11
10.924108320593454
21
-0.63857994759266512
31
0
0
LINE
5
312
100
AcDbEntity
8
0
100
AcDbLine
10
10.76816501463604
20
-0.30159078646322723
30
0
11
10.629614905720677
21
-0.56117120144833832
31
0
0
LINE
5
313
100
AcDbEntity
8
0
100
AcDbLine
10
10.76816501463604
20
-0.30159078646322723
30
0
11
10.777967308110785
21
-0.59566907462291596
31
0
0
LINE
5
314
100
AcDbEntity
8
0
100
AcDbLine
10
10.603040018996273
20
-0.26813212569241518
30
0
11
10.479535008124339
21
-0.53519885296076042
31
0
0
LINE
5
315
100
AcDbEntity
8
0
100
AcDbLine
10
10.603040018996273
20
-0.26813212569241518
30
0
11
10.62961490572067
21
-0.56117120144833388
31
0
0
LINE
5
316
100
AcDbEntity
8
0
100
AcDbLine
10
10.436274209907129
20
-0.24415482216488649
30
0
11
10.328217144753289
21
-0.51783674556254156
31
0
0
LINE
5
317
100
AcDbEntity
8
0
100
AcDbLine
10
10.436274209907129
20
-0.24415482216488649
30
0
11
10.479535008124333
21
-0.53519885296075764
31
0
0
LINE
5
318
100
AcDbEntity
8
0
100
AcDbLine
10
10.268411542775198
20
-0.22973708486100947
30
0
11
10.176154883026079
21
-0.50914151083926107
31
0
0
LINE
5
319
100
AcDbEntity
8
0
100
AcDbLine
10
10.268411542775198
20
-0.22973708486100947
30
0
11
10.328217144753285
21
-0.51783674556253934
31
0
0
LINE
5
320
100
AcDbEntity
8
0
100
AcDbLine
10
10.099999550730033
20
-0.2249259414431079
30
0
11
10.023844218433979
21
-0.50914151083925918
31
0
0
LINE
5
321
100
AcDbEntity
8
0
100
AcDbLine
10
10.099999550730033
20
-0.2249259414431079
30
0
11
10.176154883026074
21
-0.50914151083925718
31
0
0
LINE
5
322
100
AcDbEntity
8
0
100
AcDbLine
10
9.9315875586848676
20
-0.22973708486100725
30
0
11
9.8717819567067711
21
-0.51783674556253989
31
0
0
LINE
5
323
100
AcDbEntity
8
0
100
AcDbLine
10
9.9315875586848676
20
-0.22973708486100725
30
0
11
10.023844218433972
21
-0.50914151083925718
31
0
0
LINE
5
324
100
AcDbEntity
8
0
100
AcDbLine
10
9.763724891552938
20
-0.24415482216488413
30
0
11
9.7204640933357194
21
-0.53519885296075864
31
0
0
LINE
5
325
100
AcDbEntity
8
0
100
AcDbLine
10
9.763724891552938
20
-0.24415482216488413
30
0
11
9.8717819567067639
21
-0.51783674556253856
31
0
0
ENDSEC
0
SECTION
2
OBJECTS
0
DICTIONARY
5
C
100
AcDbDictionary
3
ACAD_GROUP
350
D
3
ACAD_MLINESTYLE
350
17
0
DICTIONARY
5
D
100
AcDbDictionary
0
DICTIONARY
5
1A
330
C
100
AcDbDictionary
0
DICTIONARY
5
17
100
AcDbDictionary
0
ENDSEC
0
EOF
